<svg width="14" height="13" viewBox="0 0 14 13" fill="none" xmlns="http://www.w3.org/2000/svg">
<path fill-rule="evenodd" clip-rule="evenodd" d="M5.83337 0.666626C5.36925 0.666626 4.92413 0.851 4.59594 1.17919C4.26775 1.50738 4.08337 1.9525 4.08337 2.41663V2.99996H2.33337C1.36688 2.99996 0.583374 3.78346 0.583374 4.74996V10.5833C0.583374 11.5498 1.36688 12.3333 2.33337 12.3333H11.6667C12.6332 12.3333 13.4167 11.5498 13.4167 10.5833V4.74996C13.4167 3.78346 12.6332 2.99996 11.6667 2.99996H9.91671V2.41663C9.91671 1.9525 9.73233 1.50738 9.40414 1.17919C9.07596 0.851 8.63084 0.666626 8.16671 0.666626H5.83337ZM8.75004 2.99996V2.41663C8.75004 2.26192 8.68858 2.11354 8.57919 2.00415C8.46979 1.89475 8.32142 1.83329 8.16671 1.83329H5.83337C5.67866 1.83329 5.53029 1.89475 5.4209 2.00415C5.3115 2.11354 5.25004 2.26192 5.25004 2.41663V2.99996H8.75004ZM5.25004 4.16663H8.75004V11.1666H5.25004V4.16663ZM4.08337 4.16663H2.33337C2.01121 4.16663 1.75004 4.42779 1.75004 4.74996V10.5833C1.75004 10.9055 2.01121 11.1666 2.33337 11.1666H4.08337V4.16663ZM9.91671 11.1666V4.16663H11.6667C11.9889 4.16663 12.25 4.42779 12.25 4.74996V10.5833C12.25 10.9055 11.9889 11.1666 11.6667 11.1666H9.91671Z" fill="#12F7D6"/>
</svg>
