<svg width="12" height="15" viewBox="0 0 12 15" fill="none" xmlns="http://www.w3.org/2000/svg">
<path fill-rule="evenodd" clip-rule="evenodd" d="M5.99996 4C4.71129 4 3.66663 5.04467 3.66663 6.33333C3.66663 7.622 4.71129 8.66667 5.99996 8.66667C7.28862 8.66667 8.33329 7.622 8.33329 6.33333C8.33329 5.04467 7.28862 4 5.99996 4ZM4.83329 6.33333C4.83329 5.689 5.35563 5.16667 5.99996 5.16667C6.64429 5.16667 7.16663 5.689 7.16663 6.33333C7.16663 6.97767 6.64429 7.5 5.99996 7.5C5.35563 7.5 4.83329 6.97767 4.83329 6.33333Z" fill="#12F7D6"/>
<path fill-rule="evenodd" clip-rule="evenodd" d="M5.67607 14.4018C5.67624 14.4019 5.67638 14.402 5.99996 13.9167L5.67607 14.4018C5.87201 14.5324 6.12759 14.5327 6.32353 14.402L5.99996 13.9167C6.32353 14.402 6.32337 14.4021 6.32353 14.402L6.32552 14.4007L6.3294 14.3981L6.34277 14.3891C6.35413 14.3813 6.37033 14.3703 6.39105 14.3559C6.43248 14.3272 6.49202 14.2854 6.56708 14.2312C6.71714 14.1228 6.92958 13.9646 7.18365 13.7623C7.69085 13.3584 8.36865 12.775 9.04843 12.0574C10.3841 10.6475 11.8333 8.60947 11.8333 6.33333C11.8333 4.78624 11.2187 3.30251 10.1247 2.20854C9.03079 1.11458 7.54705 0.5 5.99996 0.5C4.45286 0.5 2.96913 1.11458 1.87517 2.20854C0.781207 3.30251 0.166626 4.78624 0.166626 6.33333C0.166626 8.60947 1.61578 10.6475 2.95149 12.0574C3.63127 12.775 4.30907 13.3584 4.81627 13.7623C5.07034 13.9646 5.28278 14.1228 5.43284 14.2312C5.5079 14.2854 5.56743 14.3272 5.60887 14.3559C5.62959 14.3703 5.64579 14.3813 5.65714 14.3891L5.67051 14.3981L5.6744 14.4007L5.67607 14.4018ZM2.70013 3.0335C3.5753 2.15833 4.76228 1.66667 5.99996 1.66667C7.23764 1.66667 8.42462 2.15833 9.29979 3.0335C10.175 3.90867 10.6666 5.09566 10.6666 6.33333C10.6666 8.14053 9.49078 9.89415 8.20149 11.2551C7.56877 11.9229 6.93407 12.4697 6.4569 12.8497C6.27931 12.9911 6.12419 13.1089 5.99996 13.2007C5.87572 13.1089 5.72061 12.9911 5.54302 12.8497C5.06585 12.4697 4.43115 11.9229 3.79843 11.2551C2.50914 9.89415 1.33329 8.14053 1.33329 6.33333C1.33329 5.09566 1.82496 3.90867 2.70013 3.0335Z" fill="#12F7D6"/>
</svg>
