<svg width="20" height="21" viewBox="0 0 20 21" fill="none" xmlns="http://www.w3.org/2000/svg">
<path d="M11 1.5C11 0.947715 10.5523 0.5 10 0.5C9.44771 0.5 9 0.947715 9 1.5V11.0858L5.70711 7.79289C5.31658 7.40237 4.68342 7.40237 4.29289 7.79289C3.90237 8.18342 3.90237 8.81658 4.29289 9.20711L9.29289 14.2071C9.68342 14.5976 10.3166 14.5976 10.7071 14.2071L15.7071 9.20711C16.0976 8.81658 16.0976 8.18342 15.7071 7.79289C15.3166 7.40237 14.6834 7.40237 14.2929 7.79289L11 11.0858V1.5Z" fill="#292F36"/>
<path d="M1 12.5C1.55228 12.5 2 12.9477 2 13.5V17.5C2 17.7652 2.10536 18.0196 2.29289 18.2071C2.48043 18.3946 2.73478 18.5 3 18.5H17C17.2652 18.5 17.5196 18.3946 17.7071 18.2071C17.8946 18.0196 18 17.7652 18 17.5V13.5C18 12.9477 18.4477 12.5 19 12.5C19.5523 12.5 20 12.9477 20 13.5V17.5C20 18.2957 19.6839 19.0587 19.1213 19.6213C18.5587 20.1839 17.7957 20.5 17 20.5H3C2.20435 20.5 1.44129 20.1839 0.87868 19.6213C0.31607 19.0587 0 18.2957 0 17.5V13.5C0 12.9477 0.447715 12.5 1 12.5Z" fill="#292F36"/>
</svg>
