<svg width="14" height="15" viewBox="0 0 14 15" fill="none" xmlns="http://www.w3.org/2000/svg">
<path fill-rule="evenodd" clip-rule="evenodd" d="M0.583331 3.98988C0.583236 3.99564 0.583227 4.00139 0.583302 4.00715V11C0.583302 11.9638 1.36947 12.75 2.3333 12.75H11.6666C12.6305 12.75 13.4166 11.9638 13.4166 11V4.00721C13.4167 4.00141 13.4167 3.9956 13.4166 3.9898C13.4111 3.03063 12.6271 2.25 11.6666 2.25H2.3333C1.37284 2.25 0.588809 3.03067 0.583331 3.98988ZM1.81214 3.7398C1.90861 3.54904 2.10699 3.41667 2.3333 3.41667H11.6666C11.8929 3.41667 12.0913 3.54904 12.1878 3.7398L6.99997 7.37128L1.81214 3.7398ZM12.25 5.12038V11C12.25 11.3195 11.9861 11.5833 11.6666 11.5833H2.3333C2.0138 11.5833 1.74997 11.3195 1.74997 11V5.12038L6.66545 8.56122C6.8663 8.70182 7.13363 8.70182 7.33449 8.56122L12.25 5.12038Z" fill="#12F7D6"/>
</svg>
