<svg width="462" height="43" viewBox="0 0 462 43" fill="none" xmlns="http://www.w3.org/2000/svg">
<path d="M137.4 33L135.8 10.664H138.936L139.736 23.656L140.088 29.384H140.344L142.872 16.072H146.424L148.952 29.384H149.208L149.56 23.656L150.392 10.664H153.4L151.8 33H147L144.728 20.072H144.472L142.2 33H137.4ZM164.14 33.384C162.881 33.384 161.75 33.1813 160.748 32.776C159.745 32.3707 158.902 31.7947 158.22 31.048C157.537 30.3013 157.014 29.4053 156.652 28.36C156.289 27.2933 156.108 26.0987 156.108 24.776C156.108 23.4533 156.289 22.2587 156.652 21.192C157.036 20.1253 157.558 19.2187 158.22 18.472C158.902 17.704 159.724 17.1173 160.684 16.712C161.644 16.3067 162.71 16.104 163.884 16.104C165.036 16.104 166.081 16.3067 167.02 16.712C167.958 17.096 168.758 17.6507 169.42 18.376C170.081 19.1013 170.582 19.9653 170.924 20.968C171.286 21.9707 171.468 23.08 171.468 24.296V25.608H159.628V26.152C159.628 27.4533 160.033 28.52 160.844 29.352C161.654 30.1627 162.774 30.568 164.204 30.568C165.27 30.568 166.177 30.344 166.924 29.896C167.692 29.4267 168.31 28.808 168.78 28.04L170.956 29.96C170.401 30.92 169.548 31.7307 168.396 32.392C167.265 33.0533 165.846 33.384 164.14 33.384ZM163.884 18.76C163.265 18.76 162.689 18.8667 162.156 19.08C161.644 19.2933 161.196 19.6027 160.812 20.008C160.449 20.392 160.161 20.8507 159.948 21.384C159.734 21.9173 159.628 22.504 159.628 23.144V23.368H167.916V23.048C167.916 21.7467 167.542 20.712 166.796 19.944C166.07 19.1547 165.1 18.76 163.884 18.76ZM186.559 30.184H186.367C185.876 31.1867 185.226 31.976 184.415 32.552C183.604 33.1067 182.591 33.384 181.375 33.384C179.434 33.384 177.887 32.6587 176.735 31.208C175.583 29.7573 175.007 27.6027 175.007 24.744C175.007 21.8853 175.583 19.7307 176.735 18.28C177.887 16.8293 179.434 16.104 181.375 16.104C182.591 16.104 183.604 16.392 184.415 16.968C185.226 17.5227 185.876 18.3013 186.367 19.304H186.559V9.32H190.047V33H186.559V30.184ZM182.815 30.536C183.327 30.536 183.807 30.472 184.255 30.344C184.703 30.216 185.098 30.024 185.439 29.768C185.78 29.512 186.047 29.2027 186.239 28.84C186.452 28.456 186.559 28.008 186.559 27.496V21.992C186.559 21.48 186.452 21.0427 186.239 20.68C186.047 20.296 185.78 19.976 185.439 19.72C185.098 19.464 184.703 19.272 184.255 19.144C183.807 19.016 183.327 18.952 182.815 18.952C181.492 18.952 180.468 19.3573 179.743 20.168C179.039 20.9787 178.687 22.056 178.687 23.4V26.088C178.687 27.432 179.039 28.5093 179.743 29.32C180.468 30.1307 181.492 30.536 182.815 30.536ZM203.187 13.48C202.291 13.48 201.661 13.2987 201.299 12.936C200.957 12.5733 200.786 12.1253 200.786 11.592V10.92C200.786 10.3867 200.957 9.93867 201.299 9.576C201.661 9.21333 202.28 9.032 203.155 9.032C204.051 9.032 204.669 9.21333 205.011 9.576C205.373 9.93867 205.555 10.3867 205.555 10.92V11.592C205.555 12.1253 205.373 12.5733 205.011 12.936C204.669 13.2987 204.061 13.48 203.187 13.48ZM195.795 30.184H201.427V19.304H195.795V16.488H204.915V30.184H210.194V33H195.795V30.184ZM229.99 34.792C229.99 36.4987 229.275 37.7573 227.846 38.568C226.417 39.3787 224.241 39.784 221.318 39.784C219.889 39.784 218.683 39.688 217.702 39.496C216.742 39.3253 215.953 39.0693 215.334 38.728C214.737 38.3867 214.299 37.9707 214.022 37.48C213.766 36.9893 213.638 36.4347 213.638 35.816C213.638 34.92 213.883 34.216 214.374 33.704C214.886 33.2133 215.601 32.8507 216.518 32.616V32.296C215.963 32.0827 215.515 31.784 215.174 31.4C214.854 31.016 214.694 30.5147 214.694 29.896C214.694 29.0853 214.971 28.4773 215.526 28.072C216.081 27.6453 216.795 27.3253 217.67 27.112V26.952C216.667 26.4827 215.889 25.8213 215.334 24.968C214.779 24.1147 214.502 23.0907 214.502 21.896C214.502 21.0213 214.662 20.232 214.982 19.528C215.302 18.8027 215.75 18.1947 216.326 17.704C216.923 17.192 217.627 16.7973 218.438 16.52C219.27 16.2427 220.198 16.104 221.222 16.104C222.374 16.104 223.409 16.2853 224.326 16.648V16.104C224.326 15.464 224.507 14.9307 224.87 14.504C225.233 14.0773 225.787 13.864 226.534 13.864H229.542V16.616H225.702V17.384C226.427 17.8747 226.982 18.504 227.366 19.272C227.75 20.0187 227.942 20.8933 227.942 21.896C227.942 22.7707 227.782 23.5707 227.462 24.296C227.142 25 226.683 25.608 226.086 26.12C225.51 26.6107 224.806 26.9947 223.974 27.272C223.163 27.528 222.246 27.656 221.222 27.656C220.497 27.656 219.814 27.592 219.174 27.464C218.79 27.5707 218.406 27.752 218.022 28.008C217.638 28.264 217.446 28.616 217.446 29.064C217.446 29.576 217.691 29.896 218.182 30.024C218.673 30.152 219.281 30.216 220.006 30.216H223.718C225.937 30.216 227.537 30.6427 228.518 31.496C229.499 32.328 229.99 33.4267 229.99 34.792ZM226.726 35.016C226.726 34.4613 226.502 34.0133 226.054 33.672C225.606 33.352 224.795 33.192 223.622 33.192H217.894C217.083 33.576 216.678 34.1947 216.678 35.048C216.678 35.6667 216.934 36.2 217.446 36.648C217.979 37.096 218.854 37.32 220.07 37.32H222.662C223.985 37.32 224.987 37.1173 225.67 36.712C226.374 36.328 226.726 35.7627 226.726 35.016ZM221.222 25.256C222.353 25.256 223.185 24.9893 223.718 24.456C224.251 23.9227 224.518 23.208 224.518 22.312V21.448C224.518 20.552 224.251 19.8373 223.718 19.304C223.185 18.7707 222.353 18.504 221.222 18.504C220.091 18.504 219.259 18.7707 218.726 19.304C218.193 19.8373 217.926 20.552 217.926 21.448V22.312C217.926 23.208 218.193 23.9227 218.726 24.456C219.259 24.9893 220.091 25.256 221.222 25.256ZM306.164 33H290.036V29.832L301.78 13.672H290.484V10.664H305.716V13.832L293.972 29.992H306.164V33ZM320.712 30.184H320.552C320.381 30.6107 320.157 31.0267 319.88 31.432C319.624 31.816 319.304 32.1573 318.92 32.456C318.536 32.7333 318.088 32.9573 317.576 33.128C317.064 33.2987 316.466 33.384 315.784 33.384C314.12 33.384 312.776 32.84 311.752 31.752C310.728 30.664 310.216 29.1173 310.216 27.112V16.488H313.704V26.6C313.704 29.224 314.845 30.536 317.128 30.536C317.576 30.536 318.013 30.4827 318.44 30.376C318.866 30.248 319.25 30.0667 319.592 29.832C319.933 29.5973 320.2 29.3093 320.392 28.968C320.605 28.6053 320.712 28.1787 320.712 27.688V16.488H324.2V33H320.712V30.184ZM337.083 33.384C335.846 33.384 334.736 33.1813 333.755 32.776C332.795 32.3707 331.974 31.7947 331.291 31.048C330.63 30.3013 330.118 29.3947 329.755 28.328C329.414 27.2613 329.243 26.0667 329.243 24.744C329.243 23.4213 329.414 22.2267 329.755 21.16C330.118 20.0933 330.63 19.1867 331.291 18.44C331.974 17.6933 332.795 17.1173 333.755 16.712C334.736 16.3067 335.835 16.104 337.051 16.104C338.758 16.104 340.123 16.4667 341.147 17.192C342.192 17.9173 342.971 18.856 343.483 20.008L340.763 21.48C340.464 20.712 340.006 20.104 339.387 19.656C338.79 19.208 338.011 18.984 337.051 18.984C335.728 18.984 334.704 19.3893 333.979 20.2C333.254 20.9893 332.891 22.0453 332.891 23.368V26.12C332.891 27.4213 333.254 28.4773 333.979 29.288C334.704 30.0987 335.75 30.504 337.115 30.504C338.139 30.504 338.971 30.2693 339.611 29.8C340.272 29.3307 340.795 28.6907 341.179 27.88L343.739 29.448C343.206 30.6 342.395 31.5493 341.307 32.296C340.219 33.0213 338.811 33.384 337.083 33.384ZM355.663 33.384C354.447 33.384 353.348 33.1813 352.367 32.776C351.407 32.3707 350.585 31.7947 349.903 31.048C349.241 30.3013 348.729 29.3947 348.367 28.328C348.004 27.2613 347.823 26.0667 347.823 24.744C347.823 23.4213 348.004 22.2267 348.367 21.16C348.729 20.0933 349.241 19.1867 349.903 18.44C350.585 17.6933 351.407 17.1173 352.367 16.712C353.348 16.3067 354.447 16.104 355.663 16.104C356.879 16.104 357.967 16.3067 358.927 16.712C359.908 17.1173 360.729 17.6933 361.391 18.44C362.073 19.1867 362.596 20.0933 362.958 21.16C363.321 22.2267 363.503 23.4213 363.503 24.744C363.503 26.0667 363.321 27.2613 362.958 28.328C362.596 29.3947 362.073 30.3013 361.391 31.048C360.729 31.7947 359.908 32.3707 358.927 32.776C357.967 33.1813 356.879 33.384 355.663 33.384ZM355.663 30.632C356.943 30.632 357.956 30.248 358.703 29.48C359.471 28.6907 359.855 27.528 359.855 25.992V23.496C359.855 21.96 359.471 20.808 358.703 20.04C357.956 19.2507 356.943 18.856 355.663 18.856C354.383 18.856 353.359 19.2507 352.591 20.04C351.844 20.808 351.471 21.96 351.471 23.496V25.992C351.471 27.528 351.844 28.6907 352.591 29.48C353.359 30.248 354.383 30.632 355.663 30.632ZM367.65 30.184H373.122V12.136H367.65V9.32H376.61V30.184H382.082V33H367.65V30.184ZM394.038 33.384C392.822 33.384 391.723 33.1813 390.742 32.776C389.782 32.3707 388.96 31.7947 388.278 31.048C387.616 30.3013 387.104 29.3947 386.742 28.328C386.379 27.2613 386.198 26.0667 386.198 24.744C386.198 23.4213 386.379 22.2267 386.742 21.16C387.104 20.0933 387.616 19.1867 388.278 18.44C388.96 17.6933 389.782 17.1173 390.742 16.712C391.723 16.3067 392.822 16.104 394.038 16.104C395.254 16.104 396.342 16.3067 397.302 16.712C398.283 17.1173 399.104 17.6933 399.766 18.44C400.448 19.1867 400.971 20.0933 401.333 21.16C401.696 22.2267 401.878 23.4213 401.878 24.744C401.878 26.0667 401.696 27.2613 401.333 28.328C400.971 29.3947 400.448 30.3013 399.766 31.048C399.104 31.7947 398.283 32.3707 397.302 32.776C396.342 33.1813 395.254 33.384 394.038 33.384ZM394.038 30.632C395.318 30.632 396.331 30.248 397.078 29.48C397.846 28.6907 398.23 27.528 398.23 25.992V23.496C398.23 21.96 397.846 20.808 397.078 20.04C396.331 19.2507 395.318 18.856 394.038 18.856C392.758 18.856 391.734 19.2507 390.966 20.04C390.219 20.808 389.846 21.96 389.846 23.496V25.992C389.846 27.528 390.219 28.6907 390.966 29.48C391.734 30.248 392.758 30.632 394.038 30.632ZM414.217 33C412.766 33 411.7 32.616 411.017 31.848C410.334 31.0587 409.993 30.0453 409.993 28.808V19.304H404.905V16.488H408.521C409.14 16.488 409.577 16.3707 409.833 16.136C410.089 15.88 410.217 15.432 410.217 14.792V10.664H413.481V16.488H420.521V19.304H413.481V30.184H420.521V33H414.217ZM433.405 33C431.954 33 430.887 32.616 430.205 31.848C429.522 31.0587 429.181 30.0453 429.181 28.808V19.304H424.093V16.488H427.709C428.327 16.488 428.765 16.3707 429.021 16.136C429.277 15.88 429.405 15.432 429.405 14.792V10.664H432.669V16.488H439.708V19.304H432.669V30.184H439.708V33H433.405ZM451.6 33.384C450.384 33.384 449.285 33.1813 448.304 32.776C447.344 32.3707 446.523 31.7947 445.84 31.048C445.179 30.3013 444.667 29.3947 444.304 28.328C443.941 27.2613 443.76 26.0667 443.76 24.744C443.76 23.4213 443.941 22.2267 444.304 21.16C444.667 20.0933 445.179 19.1867 445.84 18.44C446.523 17.6933 447.344 17.1173 448.304 16.712C449.285 16.3067 450.384 16.104 451.6 16.104C452.816 16.104 453.904 16.3067 454.864 16.712C455.845 17.1173 456.667 17.6933 457.328 18.44C458.011 19.1867 458.533 20.0933 458.896 21.16C459.259 22.2267 459.44 23.4213 459.44 24.744C459.44 26.0667 459.259 27.2613 458.896 28.328C458.533 29.3947 458.011 30.3013 457.328 31.048C456.667 31.7947 455.845 32.3707 454.864 32.776C453.904 33.1813 452.816 33.384 451.6 33.384ZM451.6 30.632C452.88 30.632 453.893 30.248 454.64 29.48C455.408 28.6907 455.792 27.528 455.792 25.992V23.496C455.792 21.96 455.408 20.808 454.64 20.04C453.893 19.2507 452.88 18.856 451.6 18.856C450.32 18.856 449.296 19.2507 448.528 20.04C447.781 20.808 447.408 21.96 447.408 23.496V25.992C447.408 27.528 447.781 28.6907 448.528 29.48C449.296 30.248 450.32 30.632 451.6 30.632Z" fill="white"/>
<path d="M256.941 33.384C255.96 33.384 255.085 33.224 254.317 32.904C253.549 32.5627 252.898 32.104 252.365 31.528C251.853 30.952 251.458 30.2907 251.181 29.544C250.904 28.776 250.765 27.9547 250.765 27.08C250.765 25.864 251.064 24.7013 251.661 23.592C252.258 22.4827 253.293 21.5333 254.765 20.744C254.125 19.912 253.613 19.1013 253.229 18.312C252.866 17.5227 252.685 16.68 252.685 15.784C252.685 14.9733 252.834 14.2373 253.133 13.576C253.453 12.8933 253.88 12.3067 254.413 11.816C254.946 11.3253 255.576 10.952 256.301 10.696C257.048 10.4187 257.837 10.28 258.669 10.28C259.416 10.28 260.098 10.3867 260.717 10.6C261.336 10.8133 261.88 11.0907 262.349 11.432C262.84 11.7733 263.245 12.168 263.565 12.616C263.885 13.0427 264.13 13.48 264.301 13.928L261.709 15.272C261.453 14.6107 261.058 14.0773 260.525 13.672C259.992 13.2453 259.352 13.032 258.605 13.032C257.794 13.032 257.133 13.288 256.621 13.8C256.13 14.2907 255.885 14.9307 255.885 15.72V15.944C255.885 16.264 255.928 16.5733 256.013 16.872C256.098 17.1707 256.237 17.4907 256.429 17.832C256.621 18.1733 256.866 18.5573 257.165 18.984C257.485 19.3893 257.869 19.88 258.317 20.456L260.749 23.464L262.765 26.12H262.925C263.074 25.3307 263.17 24.424 263.213 23.4C263.256 22.376 263.288 21.416 263.309 20.52H268.333V23.24H265.997C265.869 24.136 265.72 24.968 265.549 25.736C265.4 26.4827 265.144 27.304 264.781 28.2L268.781 33H264.909L262.221 29.8H262.029C261.794 30.888 261.229 31.7627 260.333 32.424C259.458 33.064 258.328 33.384 256.941 33.384ZM257.837 30.536C258.562 30.536 259.213 30.3973 259.789 30.12C260.386 29.8213 260.866 29.3627 261.229 28.744L256.269 22.632C255.458 23.208 254.904 23.848 254.605 24.552C254.306 25.2347 254.157 25.9707 254.157 26.76V27.048C254.157 28.136 254.488 28.9893 255.149 29.608C255.832 30.2267 256.728 30.536 257.837 30.536Z" fill="#12F7D6"/>
<path d="M2.72 24.904V21.576L16.48 13.864V17.256L5.888 23.112V23.368L16.48 29.192V32.616L2.72 24.904ZM21.5875 33L19.9875 10.664H23.1235L23.9235 23.656L24.2755 29.384H24.5315L27.0595 16.072H30.6115L33.1395 29.384H33.3955L33.7475 23.656L34.5795 10.664H37.5875L35.9875 33H31.1875L28.9155 20.072H28.6595L26.3875 33H21.5875ZM56.039 33H39.911V29.832L51.655 13.672H40.359V10.664H55.591V13.832L43.847 29.992H56.039V33ZM60.2185 37.416L71.0025 8.68H74.1065L63.3225 37.416H60.2185ZM79.47 29.224L90.062 23.368V23.112L79.47 17.288V13.864L93.23 21.576V24.904L79.47 32.616V29.224Z" fill="#12F7D6"/>
</svg>
