<svg width="32" height="143" viewBox="0 0 32 143" fill="none" xmlns="http://www.w3.org/2000/svg">
<g clip-path="url(#clip0_20_83)">
<path fill-rule="evenodd" clip-rule="evenodd" d="M0 16C0 7.16344 7.16344 0 16 0C24.8366 0 32 7.16344 32 16V28C32 36.8366 24.8366 44 16 44H14V43.8762C6.10738 42.892 0 36.1592 0 28V16ZM16 40C22.6274 40 28 34.6274 28 28V16C28 9.37258 22.6274 4 16 4C9.37258 4 4 9.37258 4 16V28C4 34.6274 9.37258 40 16 40Z" fill="#12F7D6"/>
<path d="M17.3332 9.16663V16.5H14.6665V9.16663H17.3332Z" fill="#12F7D6"/>
</g>
<path d="M16.5 60C16.5 59.7239 16.2761 59.5 16 59.5C15.7239 59.5 15.5 59.7239 15.5 60H16.5ZM16 142.887L18.8868 140L16 137.113L13.1132 140L16 142.887ZM15.5 62.8571C15.5 63.1333 15.7239 63.3571 16 63.3571C16.2761 63.3571 16.5 63.1333 16.5 62.8571H15.5ZM16.5 68.5714C16.5 68.2953 16.2761 68.0714 16 68.0714C15.7239 68.0714 15.5 68.2953 15.5 68.5714H16.5ZM15.5 74.2857C15.5 74.5619 15.7239 74.7857 16 74.7857C16.2761 74.7857 16.5 74.5619 16.5 74.2857H15.5ZM16.5 80C16.5 79.7239 16.2761 79.5 16 79.5C15.7239 79.5 15.5 79.7239 15.5 80H16.5ZM15.5 85.7143C15.5 85.9904 15.7239 86.2143 16 86.2143C16.2761 86.2143 16.5 85.9904 16.5 85.7143H15.5ZM16.5 91.4286C16.5 91.1524 16.2761 90.9286 16 90.9286C15.7239 90.9286 15.5 91.1524 15.5 91.4286H16.5ZM15.5 97.1429C15.5 97.419 15.7239 97.6429 16 97.6429C16.2761 97.6429 16.5 97.419 16.5 97.1429H15.5ZM16.5 102.857C16.5 102.581 16.2761 102.357 16 102.357C15.7239 102.357 15.5 102.581 15.5 102.857H16.5ZM15.5 108.571C15.5 108.848 15.7239 109.071 16 109.071C16.2761 109.071 16.5 108.848 16.5 108.571H15.5ZM16.5 114.286C16.5 114.01 16.2761 113.786 16 113.786C15.7239 113.786 15.5 114.01 15.5 114.286H16.5ZM15.5 120C15.5 120.276 15.7239 120.5 16 120.5C16.2761 120.5 16.5 120.276 16.5 120H15.5ZM16.5 125.714C16.5 125.438 16.2761 125.214 16 125.214C15.7239 125.214 15.5 125.438 15.5 125.714H16.5ZM15.5 131.429C15.5 131.705 15.7239 131.929 16 131.929C16.2761 131.929 16.5 131.705 16.5 131.429H15.5ZM16.5 137.143C16.5 136.867 16.2761 136.643 16 136.643C15.7239 136.643 15.5 136.867 15.5 137.143H16.5ZM15.5 60V62.8571H16.5V60H15.5ZM15.5 68.5714V74.2857H16.5L16.5 68.5714H15.5ZM15.5 80L15.5 85.7143H16.5V80H15.5ZM15.5 91.4286L15.5 97.1429H16.5V91.4286H15.5ZM15.5 102.857L15.5 108.571H16.5V102.857H15.5ZM15.5 114.286V120H16.5V114.286H15.5ZM15.5 125.714V131.429H16.5L16.5 125.714H15.5ZM15.5 137.143V140H16.5V137.143H15.5ZM16.5 60C16.5 59.7239 16.2761 59.5 16 59.5C15.7239 59.5 15.5 59.7239 15.5 60H16.5ZM16 142.887L18.8868 140L16 137.113L13.1132 140L16 142.887ZM15.5 62.8571C15.5 63.1333 15.7239 63.3571 16 63.3571C16.2761 63.3571 16.5 63.1333 16.5 62.8571H15.5ZM16.5 68.5714C16.5 68.2953 16.2761 68.0714 16 68.0714C15.7239 68.0714 15.5 68.2953 15.5 68.5714H16.5ZM15.5 74.2857C15.5 74.5619 15.7239 74.7857 16 74.7857C16.2761 74.7857 16.5 74.5619 16.5 74.2857H15.5ZM16.5 80C16.5 79.7239 16.2761 79.5 16 79.5C15.7239 79.5 15.5 79.7239 15.5 80H16.5ZM15.5 85.7143C15.5 85.9904 15.7239 86.2143 16 86.2143C16.2761 86.2143 16.5 85.9904 16.5 85.7143H15.5ZM16.5 91.4286C16.5 91.1524 16.2761 90.9286 16 90.9286C15.7239 90.9286 15.5 91.1524 15.5 91.4286H16.5ZM15.5 97.1429C15.5 97.419 15.7239 97.6429 16 97.6429C16.2761 97.6429 16.5 97.419 16.5 97.1429H15.5ZM16.5 102.857C16.5 102.581 16.2761 102.357 16 102.357C15.7239 102.357 15.5 102.581 15.5 102.857H16.5ZM15.5 108.571C15.5 108.848 15.7239 109.071 16 109.071C16.2761 109.071 16.5 108.848 16.5 108.571H15.5ZM16.5 114.286C16.5 114.01 16.2761 113.786 16 113.786C15.7239 113.786 15.5 114.01 15.5 114.286H16.5ZM15.5 120C15.5 120.276 15.7239 120.5 16 120.5C16.2761 120.5 16.5 120.276 16.5 120H15.5ZM16.5 125.714C16.5 125.438 16.2761 125.214 16 125.214C15.7239 125.214 15.5 125.438 15.5 125.714H16.5ZM15.5 131.429C15.5 131.705 15.7239 131.929 16 131.929C16.2761 131.929 16.5 131.705 16.5 131.429H15.5ZM16.5 137.143C16.5 136.867 16.2761 136.643 16 136.643C15.7239 136.643 15.5 136.867 15.5 137.143H16.5ZM15.5 60V62.8571H16.5V60H15.5ZM15.5 68.5714V74.2857H16.5L16.5 68.5714H15.5ZM15.5 80L15.5 85.7143H16.5V80H15.5ZM15.5 91.4286L15.5 97.1429H16.5V91.4286H15.5ZM15.5 102.857L15.5 108.571H16.5V102.857H15.5ZM15.5 114.286V120H16.5V114.286H15.5ZM15.5 125.714V131.429H16.5L16.5 125.714H15.5ZM15.5 137.143V140H16.5V137.143H15.5Z" fill="white"/>
<defs>
<clipPath id="clip0_20_83">
<rect width="32" height="44" fill="white"/>
</clipPath>
</defs>
</svg>
